# Limoni sample: 8-segment beach ball
# Latitude rings: top, upper, equator, lower, bottom
v 0.0000 0.0000 1.0000
v 0.7071 0.0000 0.7071
v 0.5000 0.5000 0.7071
v 0.0000 0.7071 0.7071
v -0.5000 0.5000 0.7071
v -0.7071 0.0000 0.7071
v -0.5000 -0.5000 0.7071
v 0.0000 -0.7071 0.7071
v 0.5000 -0.5000 0.7071
v 1.0000 0.0000 0.0000
v 0.7071 0.7071 0.0000
v 0.0000 1.0000 0.0000
v -0.7071 0.7071 0.0000
v -1.0000 0.0000 0.0000
v -0.7071 -0.7071 0.0000
v 0.0000 -1.0000 0.0000
v 0.7071 -0.7071 0.0000
v 0.7071 0.0000 -0.7071
v 0.5000 0.5000 -0.7071
v 0.0000 0.7071 -0.7071
v -0.5000 0.5000 -0.7071
v -0.7071 0.0000 -0.7071
v -0.5000 -0.5000 -0.7071
v 0.0000 -0.7071 -0.7071
v 0.5000 -0.5000 -0.7071
v 0.0000 0.0000 -1.0000

# Top cap
f 1 2 3
f 1 3 4
f 1 4 5
f 1 5 6
f 1 6 7
f 1 7 8
f 1 8 9
f 1 9 2

# Upper hemisphere to equator
f 2 10 11 3
f 3 11 12 4
f 4 12 13 5
f 5 13 14 6
f 6 14 15 7
f 7 15 16 8
f 8 16 17 9
f 9 17 10 2

# Equator to lower hemisphere
f 10 18 19 11
f 11 19 20 12
f 12 20 21 13
f 13 21 22 14
f 14 22 23 15
f 15 23 24 16
f 16 24 25 17
f 17 25 18 10

# Bottom cap
f 18 26 19
f 19 26 20
f 20 26 21
f 21 26 22
f 22 26 23
f 23 26 24
f 24 26 25
f 25 26 18
